
        <svg xmlns="http://www.w3.org/2000/svg" xmlns:xlink="http://www.w3.org/1999/xlink" version="1.1" width="3162.1621621621625" height="893.190360146742" viewBox="0 0 3162.1621621621625 893.190360146742">
			
			<g transform="scale(8.108108108108109) translate(10, 10)">
				<defs id="SvgjsDefs1029"/><g id="SvgjsG1030" featureKey="symbolFeature-0" transform="matrix(4.657997185947363,0,0,4.657997185947363,-5.821455894207115,-10.81609392187197)" fill="#fff"><g xmlns="http://www.w3.org/2000/svg"><circle cx="18.524" cy="5.452" r="0.524"/><path d="M14.713,9.235c-5.282,2.189 -7.381,6.353 -7.381,6.353c-0.094,0.183 -0.108,0.397 -0.039,0.591c0.069,0.194 0.215,0.351 0.403,0.435c-0,-0 1.812,0.805 3.998,1.08c1.523,0.192 3.216,0.117 4.641,-0.595c3.251,-1.625 7.946,-5.575 5.872,-11.422c-0.633,-1.782 -1.64,-2.722 -2.687,-3.12c-1.63,-0.62 -3.442,0.064 -4.49,1.264c-0.792,0.908 -1.138,2.088 -0.756,3.193c0.135,0.391 0.563,0.599 0.954,0.464c0.391,-0.136 0.599,-0.563 0.464,-0.954c-0.208,-0.6 0.039,-1.224 0.468,-1.716c0.663,-0.759 1.796,-1.241 2.827,-0.849c0.727,0.277 1.367,0.981 1.806,2.22c1.755,4.946 -2.379,8.203 -5.128,9.578c-1.161,0.58 -2.544,0.605 -3.784,0.449c-1.107,-0.139 -2.108,-0.43 -2.767,-0.656c0.805,-1.172 2.745,-3.509 6.173,-4.929c0.383,-0.158 0.564,-0.598 0.406,-0.98c-0.159,-0.382 -0.598,-0.564 -0.98,-0.406Z"/><path d="M11.279,11.304c-0,-0 -2.29,-0.96 -6.094,0.196c0.553,-0.536 1.208,-1.108 1.949,-1.646c2.37,-1.722 5.639,-3.125 9.326,-1.826c0.16,0.296 0.447,0.759 0.867,1.176c0.495,0.491 1.165,0.913 2.004,0.994c0.842,0.081 1.889,-0.175 3.114,-1.193c0.318,-0.265 0.362,-0.738 0.097,-1.057c-0.265,-0.318 -0.738,-0.361 -1.056,-0.097c-0.802,0.668 -1.459,0.907 -2.011,0.854c-0.461,-0.045 -0.819,-0.295 -1.091,-0.565c-0.464,-0.461 -0.692,-1 -0.692,-1c-0.078,-0.189 -0.231,-0.338 -0.422,-0.412c-4.355,-1.681 -8.233,-0.11 -11.018,1.913c-2.716,1.973 -4.368,4.36 -4.368,4.36c-0.197,0.284 -0.175,0.665 0.054,0.924c0.23,0.259 0.606,0.328 0.912,0.167c4.832,-2.547 7.871,-1.396 7.871,-1.396c0.384,0.154 0.821,-0.033 0.975,-0.417c0.154,-0.384 -0.033,-0.821 -0.417,-0.975Z"/><path d="M8.016,15.355c-0,0 -1.525,1.211 -6.035,1.323c-0.414,0.011 -0.741,0.355 -0.731,0.769c0.011,0.414 0.355,0.741 0.769,0.731c5.23,-0.131 6.965,-1.677 6.965,-1.677c0.316,-0.267 0.356,-0.741 0.089,-1.057c-0.267,-0.316 -0.741,-0.356 -1.057,-0.089Z"/><path d="M8.115,15.284c0,0 -2.405,1.348 -2.365,5.651c0.004,0.414 0.343,0.747 0.757,0.743c0.414,-0.004 0.747,-0.343 0.743,-0.757c-0.03,-3.264 1.635,-4.349 1.635,-4.349c0.355,-0.213 0.471,-0.674 0.259,-1.029c-0.213,-0.355 -0.674,-0.471 -1.029,-0.259Z"/><path d="M20.134,4.166l0.882,-0.16c0,0 -0.252,1.277 -0.252,1.277c-0.08,0.406 0.185,0.801 0.591,0.881c0.406,0.08 0.801,-0.184 0.881,-0.591l0.465,-2.356c0.048,-0.243 -0.027,-0.494 -0.201,-0.671c-0.174,-0.177 -0.424,-0.256 -0.668,-0.212l-1.966,0.356c-0.407,0.074 -0.678,0.465 -0.604,0.872c0.074,0.407 0.464,0.678 0.872,0.604Z"/></g></g><g id="SvgjsG1031" featureKey="nameFeature-0" transform="matrix(1.6455047960579394,0,0,1.6455047960579394,114.50654575636224,-0.3755923199598925)" fill="#fff"><path d="M35.18016 16.88984 l0.033516 2.34746 c0.036641 2.52582 -0.981444 4.97788 -2.86668 6.90496 c-1.769336 1.808556 -5.02444 3.932072 -10.734 4.42856 l-0.073516 9.2524 l-4.69512 -0.032188 l0.072969 -9.1988 c-4.46468 -0.362812 -8.17992 -1.859844 -10.61708 -4.31452 c-1.94668 -1.96082 -2.998244 -4.46128 -2.96082 -7.04048 l0.034258 -2.34742 l4.69488 0.068281 l-0.034023 2.34742 c-0.019102 1.324648 0.53336 2.591756 1.598244 3.663984 c1.960548 1.974688 5.38176 3.04742 9.62696 3.013944 c4.3352 -0.031641 7.7912 -1.141288 9.73164 -3.124844 c1.01832 -1.040584 1.546444 -2.26922 1.527892 -3.553048 l-0.034023 -2.34742 z M50.27084 15.42116 l18.35304 24.3802 l-5.90152 0 l-5.13196 -6.79484 l-14.6394 0 l-5.05716 6.79484 l-5.83536 0 z M46.4726 28.31112 l7.5966 0 l-3.798436 -5.06448 z M100.63808 17.18512 l4.69516 0 l0 22.49968 l-27.17936 -14.196 l0 14.51124 l-4.6954 0 l0 -22.49968 l27.1796 14.196 l0 -14.51124 z M143.89348 16.98268 l0 4.78852 l-22.74764 13.33096 l22.74764 0 l0 4.6954 l-31.875 0 l0 -4.78852 l22.74764 -13.33124 l-22.74764 0 l0 -4.69512 l31.875 0 z M155.26752 40.049219 l-4.64912 0 l0 -22.59072 l4.64912 0 l0 22.59072 z"/></g>
			</g>
		</svg>
	